HIERARCHY
ROOT joint_0
{
	OFFSET 0.000000 0.000000 0.000000
	CHANNELS 6 Xposition Yposition Zposition Zrotation Yrotation Xrotation 
	JOINT joint_1
	{
		OFFSET 0.587158 0.057678 95.682007
		CHANNELS 3 Zrotation Yrotation Xrotation
		JOINT joint_2
		{
			OFFSET -7.116699 -0.219910 87.157959
			CHANNELS 3 Zrotation Yrotation Xrotation
			JOINT joint_3
			{
				OFFSET -5.892822 -0.290222 87.151001
				CHANNELS 3 Zrotation Yrotation Xrotation
				JOINT joint_4
				{
					OFFSET 5.544678 -0.099609 123.768066
					CHANNELS 3 Zrotation Yrotation Xrotation
					JOINT joint_5
					{
						OFFSET 41.981201 4.519775 84.257935
						CHANNELS 3 Zrotation Yrotation Xrotation
						End Site
						{
							OFFSET 0.000000 0.000000 0.000000
						}
					}
				}
				JOINT joint_6
				{
					OFFSET 3.940918 -26.976501 69.308105
					CHANNELS 3 Zrotation Yrotation Xrotation
					JOINT joint_7
					{
						OFFSET 4.776123 -152.592468 -16.842041
						CHANNELS 3 Zrotation Yrotation Xrotation
						JOINT joint_8
						{
							OFFSET 54.421875 -30.424072 -248.864014
							CHANNELS 3 Zrotation Yrotation Xrotation
							JOINT joint_9
							{
								OFFSET 42.120117 -33.387878 -236.524963
								CHANNELS 3 Zrotation Yrotation Xrotation
								End Site
								{
									OFFSET 0.000000 0.000000 0.000000
								}
							}
						}
					}
				}
				JOINT joint_10
				{
					OFFSET 2.312012 26.904114 69.425049
					CHANNELS 3 Zrotation Yrotation Xrotation
					JOINT joint_11
					{
						OFFSET 0.971436 152.197815 -20.626953
						CHANNELS 3 Zrotation Yrotation Xrotation
						JOINT joint_12
						{
							OFFSET 49.954102 28.991455 -249.970093
							CHANNELS 3 Zrotation Yrotation Xrotation
							JOINT joint_13
							{
								OFFSET 48.146973 19.598389 -236.919922
								CHANNELS 3 Zrotation Yrotation Xrotation
								End Site
								{
									OFFSET 0.000000 0.000000 0.000000
								}
							}
						}
					}
				}
			}
		}
	}
	JOINT joint_14
	{
		OFFSET 16.305664 -89.442932 -108.224976
		CHANNELS 3 Zrotation Yrotation Xrotation
		JOINT joint_15
		{
			OFFSET -22.282471 13.437134 -412.904968
			CHANNELS 3 Zrotation Yrotation Xrotation
			JOINT joint_16
			{
				OFFSET -45.426025 14.484802 -445.892029
				CHANNELS 3 Zrotation Yrotation Xrotation
				JOINT joint_17
				{
					OFFSET 173.389404 -9.944031 -76.473001
					CHANNELS 3 Zrotation Yrotation Xrotation
					End Site
					{
						OFFSET 0.000000 0.000000 0.000000
					}
				}
			}
		}
	}
	JOINT joint_18
	{
		OFFSET 13.392822 89.408875 -108.653992
		CHANNELS 3 Zrotation Yrotation Xrotation
		JOINT joint_19
		{
			OFFSET -29.032959 24.483521 -411.977966
			CHANNELS 3 Zrotation Yrotation Xrotation
			JOINT joint_20
			{
				OFFSET -30.530029 28.986328 -446.453018
				CHANNELS 3 Zrotation Yrotation Xrotation
				JOINT joint_21
				{
					OFFSET 170.330078 33.400757 -76.698997
					CHANNELS 3 Zrotation Yrotation Xrotation
					End Site
					{
						OFFSET 0.000000 0.000000 0.000000
					}
				}
			}
		}
	}
}
MOTION
Frames: 16
Frame Time: 0.016667
-2409.096680 1023.232361 1059.140991 -5.372211 -3.022883 -0.141865 -0.022874 2.554120 0.818159 -0.119750 -0.515715 -0.192732 -0.095213 0.493989 0.119209 -0.050517 1.979372 -0.103085 0.000000 0.000000 0.000000 -0.295350 1.368351 -0.351444 0.032836 1.361390 0.564070 0.628045 -3.279735 0.755113 0.000000 0.000000 0.000000 -1.095957 0.925772 -1.188411 0.409077 1.113699 1.173706 -0.163901 -1.524825 -0.175640 0.000000 0.000000 0.000000 -1.037156 0.045206 -2.322216 -1.036532 5.494186 0.674270 -1.230969 -2.804859 -0.701906 0.000000 0.000000 0.000000 1.497285 1.878806 -1.042956 1.364324 2.173856 1.020130 1.107062 -1.852458 0.860584 0.000000 0.000000 0.000000 
-2409.159912 1023.283875 1059.133057 -5.368926 -3.014982 -0.140501 -0.017160 2.577604 0.818534 -0.114611 -0.520898 -0.195168 -0.089768 0.498582 0.121058 -0.056179 1.976605 -0.091401 0.000000 0.000000 0.000000 -0.307582 1.371601 -0.345195 0.026752 1.362901 0.536987 0.627919 -3.278269 0.755948 0.000000 0.000000 0.000000 -1.098326 0.935781 -1.191276 0.409557 1.124156 1.170579 -0.165146 -1.518729 -0.184388 0.000000 0.000000 0.000000 -1.036591 0.021908 -2.327452 -1.035001 5.513799 0.675451 -1.230669 -2.815834 -0.702396 0.000000 0.000000 0.000000 1.496191 1.862990 -1.045980 1.364458 2.179327 1.017063 1.106398 -1.855747 0.860928 0.000000 0.000000 0.000000 
-2409.218994 1023.332520 1059.128052 -5.368407 -3.006562 -0.140129 -0.010335 2.593654 0.818075 -0.107985 -0.523568 -0.194798 -0.083224 0.501661 0.120180 -0.060833 1.979200 -0.082281 0.000000 0.000000 0.000000 -0.321181 1.373262 -0.338128 0.022329 1.362690 0.516861 0.625749 -3.270036 0.751261 0.000000 0.000000 0.000000 -1.103285 0.946011 -1.194035 0.410650 1.135243 1.170635 -0.165105 -1.509891 -0.187862 0.000000 0.000000 0.000000 -1.035455 -0.000951 -2.332184 -1.033055 5.530484 0.678048 -1.229521 -2.820295 -0.702142 0.000000 0.000000 0.000000 1.495954 1.848839 -1.047557 1.365301 2.181720 1.013628 1.106678 -1.858008 0.861494 0.000000 0.000000 0.000000 
-2409.275146 1023.378174 1059.130981 -5.374460 -2.997903 -0.141860 -0.000244 2.600705 0.817213 -0.097730 -0.524183 -0.191436 -0.073365 0.502194 0.117852 -0.063047 1.992784 -0.079190 0.000000 0.000000 0.000000 -0.339116 1.372970 -0.330706 0.020310 1.360100 0.506848 0.619310 -3.247883 0.734836 0.000000 0.000000 0.000000 -1.117225 0.956823 -1.200006 0.412854 1.148224 1.176287 -0.162771 -1.494618 -0.182546 0.000000 0.000000 0.000000 -1.032653 -0.025312 -2.337318 -1.029734 5.546714 0.686013 -1.226247 -2.813389 -0.700302 0.000000 0.000000 0.000000 1.497746 1.838561 -1.046361 1.367793 2.177973 1.009943 1.109183 -1.857127 0.862446 0.000000 0.000000 0.000000 
-2409.329102 1023.421936 1059.135986 -5.382841 -2.989459 -0.144526 0.010894 2.603314 0.816488 -0.086349 -0.525272 -0.187580 -0.062496 0.501642 0.114364 -0.063999 2.011737 -0.079173 0.000000 0.000000 0.000000 -0.358292 1.371170 -0.322854 0.019874 1.355894 0.503532 0.610962 -3.219207 0.713404 0.000000 0.000000 0.000000 -1.134355 0.967860 -1.205788 0.415617 1.161915 1.184971 -0.159147 -1.475631 -0.172338 0.000000 0.000000 0.000000 -1.029133 -0.048535 -2.342284 -1.025913 5.559957 0.695749 -1.222002 -2.799917 -0.697660 0.000000 0.000000 0.000000 1.500501 1.830465 -1.044013 1.371031 2.171283 1.006229 1.112677 -1.855284 0.863655 0.000000 0.000000 0.000000 
-2409.377197 1023.461792 1059.141968 -5.386967 -2.982488 -0.145836 0.019434 2.602109 0.815875 -0.077602 -0.524209 -0.185172 -0.054104 0.501715 0.111695 -0.065202 2.027055 -0.078282 0.000000 0.000000 0.000000 -0.376504 1.368473 -0.314825 0.019790 1.350876 0.500925 0.604823 -3.199028 0.696832 0.000000 0.000000 0.000000 -1.147100 0.976237 -1.213361 0.418145 1.172284 1.195435 -0.153532 -1.450596 -0.154715 0.000000 0.000000 0.000000 -1.027073 -0.063036 -2.344783 -1.023653 5.561650 0.698548 -1.219237 -2.783992 -0.695528 0.000000 0.000000 0.000000 1.501989 1.823793 -1.043232 1.372799 2.164740 1.003041 1.114881 -1.851959 0.863994 0.000000 0.000000 0.000000 
-2409.414795 1023.491943 1059.145996 -5.380942 -2.979210 -0.144441 0.022632 2.603201 0.813738 -0.074241 -0.527245 -0.185588 -0.050641 0.504450 0.112527 -0.066819 2.034672 -0.075774 0.000000 0.000000 0.000000 -0.394064 1.364938 -0.308407 0.019953 1.345116 0.498475 0.602195 -3.191624 0.688621 0.000000 0.000000 0.000000 -1.151798 0.980541 -1.222327 0.419448 1.177303 1.205062 -0.144242 -1.412381 -0.124246 0.000000 0.000000 0.000000 -1.027965 -0.058714 -2.341943 -1.024565 5.539477 0.687088 -1.219514 -2.765311 -0.694578 0.000000 0.000000 0.000000 1.500484 1.820087 -1.045009 1.371291 2.159179 1.000184 1.113963 -1.847368 0.862685 0.000000 0.000000 0.000000 
-2409.447510 1023.518188 1059.151001 -5.370726 -2.978043 -0.141493 0.023231 2.602108 0.811930 -0.073614 -0.528974 -0.188276 -0.049701 0.507219 0.114159 -0.068725 2.039649 -0.072409 0.000000 0.000000 0.000000 -0.409607 1.360878 -0.301201 0.020337 1.339014 0.496392 0.601792 -3.192898 0.685254 0.000000 0.000000 0.000000 -1.151971 0.982151 -1.232537 0.420501 1.178948 1.216581 -0.132993 -1.366912 -0.087078 0.000000 0.000000 0.000000 -1.030152 -0.044920 -2.337028 -1.026944 5.505585 0.669050 -1.221149 -2.744436 -0.694100 0.000000 0.000000 0.000000 1.497748 1.818306 -1.048697 1.368290 2.154076 0.998156 1.111730 -1.841292 0.860496 0.000000 0.000000 0.000000 
-2409.491211 1023.551147 1059.151001 -5.365666 -2.978582 -0.139473 0.025360 2.603040 0.812880 -0.071763 -0.531366 -0.191270 -0.047494 0.509872 0.116151 -0.069348 2.039796 -0.071164 0.000000 0.000000 0.000000 -0.422451 1.356737 -0.292960 0.020065 1.333068 0.491262 0.604136 -3.203579 0.689093 0.000000 0.000000 0.000000 -1.152635 0.983243 -1.244004 0.422308 1.180222 1.230334 -0.123720 -1.331850 -0.055511 0.000000 0.000000 0.000000 -1.030689 -0.038711 -2.334187 -1.027347 5.487697 0.656072 -1.221474 -2.731386 -0.693492 0.000000 0.000000 0.000000 1.496933 1.817134 -1.052511 1.367161 2.151117 0.997556 1.111150 -1.836674 0.859332 0.000000 0.000000 0.000000 
-2409.552246 1023.593750 1059.141968 -5.371206 -2.980653 -0.139641 0.031472 2.603810 0.817555 -0.066101 -0.529852 -0.191860 -0.041832 0.509216 0.115667 -0.068416 2.034611 -0.072535 0.000000 0.000000 0.000000 -0.432100 1.354368 -0.282327 0.018270 1.329128 0.479754 0.611085 -3.230750 0.704423 0.000000 0.000000 0.000000 -1.156967 0.984754 -1.256561 0.425759 1.182598 1.249010 -0.118044 -1.313138 -0.035114 0.000000 0.000000 0.000000 -1.028061 -0.048924 -2.335359 -1.023988 5.500101 0.654270 -1.219038 -2.729395 -0.692299 0.000000 0.000000 0.000000 1.500091 1.816093 -1.055354 1.370087 2.151448 0.998685 1.114155 -1.835161 0.860382 0.000000 0.000000 0.000000 
-2409.624512 1023.642090 1059.130005 -5.381995 -2.984241 -0.140520 0.039002 2.605745 0.823958 -0.059193 -0.528450 -0.192201 -0.034870 0.509515 0.116211 -0.066051 2.024888 -0.076349 0.000000 0.000000 0.000000 -0.438885 1.351451 -0.270802 0.015896 1.324888 0.465163 0.620740 -3.267590 0.726487 0.000000 0.000000 0.000000 -1.161088 0.984942 -1.271660 0.430044 1.183696 1.271109 -0.114422 -1.303747 -0.021085 0.000000 0.000000 0.000000 -1.023969 -0.067005 -2.338897 -1.018863 5.528503 0.657840 -1.215452 -2.734775 -0.691020 0.000000 0.000000 0.000000 1.505061 1.815553 -1.058365 1.374777 2.153810 1.001193 1.118772 -1.834297 0.862282 0.000000 0.000000 0.000000 
-2409.701904 1023.699280 1059.120972 -5.392160 -2.989096 -0.139628 0.046790 2.612789 0.830227 -0.052075 -0.529241 -0.192661 -0.027720 0.509815 0.116239 -0.064541 2.017160 -0.078649 0.000000 0.000000 0.000000 -0.446852 1.346747 -0.259657 0.014878 1.318767 0.455752 0.628499 -3.298611 0.743013 0.000000 0.000000 0.000000 -1.168657 0.984314 -1.283706 0.433570 1.184390 1.288786 -0.111937 -1.299646 -0.010521 0.000000 0.000000 0.000000 -1.019097 -0.083428 -2.345360 -1.013206 5.556947 0.661479 -1.211477 -2.745452 -0.689875 0.000000 0.000000 0.000000 1.510307 1.815658 -1.065252 1.379272 2.156714 1.006152 1.123298 -1.833752 0.864201 0.000000 0.000000 0.000000 
-2409.781494 1023.768433 1059.119019 -5.399051 -2.995871 -0.136208 0.053736 2.626370 0.835766 -0.045870 -0.531149 -0.194232 -0.021339 0.511981 0.117089 -0.063802 2.010220 -0.079470 0.000000 0.000000 0.000000 -0.456321 1.337027 -0.250005 0.016250 1.307532 0.454773 0.631910 -3.315493 0.747542 0.000000 0.000000 0.000000 -1.178130 0.981667 -1.290673 0.435368 1.183175 1.298144 -0.110403 -1.300059 -0.002833 0.000000 0.000000 0.000000 -1.013826 -0.093055 -2.354607 -1.007638 5.577841 0.662294 -1.207495 -2.758691 -0.688874 0.000000 0.000000 0.000000 1.514568 1.818115 -1.077245 1.381972 2.158325 1.014161 1.126397 -1.832812 0.865403 0.000000 0.000000 0.000000 
-2409.867188 1023.846436 1059.121948 -5.406381 -3.003597 -0.131162 0.060481 2.644335 0.841661 -0.039979 -0.534619 -0.196305 -0.015248 0.514597 0.117696 -0.062802 2.004500 -0.080944 0.000000 0.000000 0.000000 -0.463804 1.325080 -0.240547 0.018884 1.294312 0.458456 0.633419 -3.326795 0.746332 0.000000 0.000000 0.000000 -1.187232 0.977715 -1.295704 0.436421 1.180544 1.303890 -0.110029 -1.304937 0.000940 0.000000 0.000000 0.000000 -1.007718 -0.101648 -2.366552 -1.001442 5.598858 0.663162 -1.203031 -2.776729 -0.687937 0.000000 0.000000 0.000000 1.519227 1.820943 -1.092678 1.384675 2.160402 1.024173 1.129633 -1.831370 0.866566 0.000000 0.000000 0.000000 
-2409.955078 1023.922363 1059.126953 -5.414323 -3.007599 -0.125307 0.067027 2.654507 0.845889 -0.034004 -0.536692 -0.197136 -0.009159 0.517875 0.118361 -0.062247 2.002101 -0.081851 0.000000 0.000000 0.000000 -0.470158 1.315056 -0.232968 0.021968 1.283261 0.465639 0.635466 -3.338638 0.747655 0.000000 0.000000 0.000000 -1.196855 0.973164 -1.302694 0.437531 1.177368 1.310450 -0.110366 -1.309333 0.001025 0.000000 0.000000 0.000000 -1.000904 -0.117780 -2.380519 -0.994358 5.627143 0.666811 -1.198050 -2.803501 -0.687274 0.000000 0.000000 0.000000 1.524174 1.817866 -1.110336 1.387855 2.165496 1.036545 1.133292 -1.829828 0.867899 0.000000 0.000000 0.000000 
-2410.046875 1024.000244 1059.134033 -5.426715 -3.005315 -0.118732 0.073830 2.655087 0.850137 -0.027646 -0.538119 -0.196915 -0.002878 0.518745 0.117478 -0.061520 2.006763 -0.083806 0.000000 0.000000 0.000000 -0.470950 1.309061 -0.228654 0.025581 1.277063 0.478131 0.638503 -3.352460 0.752828 0.000000 0.000000 0.000000 -1.202889 0.968830 -1.313675 0.439228 1.173947 1.320890 -0.111724 -1.310195 -0.005338 0.000000 0.000000 0.000000 -0.991930 -0.146642 -2.397862 -0.984862 5.667287 0.676030 -1.191292 -2.847542 -0.686822 0.000000 0.000000 0.000000 1.531094 1.804469 -1.131240 1.393510 2.177150 1.052509 1.139033 -1.829757 0.870453 0.000000 0.000000 0.000000 
